PathFileType	3	(X/Y/Z)	C:\Users\koon_\Desktop\
DataRate	CameraRate	NumFrames	NumMarkers	Units	OrigDataRate	OrigDataStartFrame	OrigNumFrames
100.0	100.0	14	27	mm	100.0	1	4482	
Frame#	Time	get:LFHD			get:RFHD			get:LBHD			get:RBHD			get:C7			get:T10			get:CLAV			get:STRN			get:RBAK			get:LSHO			get:LUPA			get:LELB			get:LFRA			get:LWRA			get:LWRB			get:LFIN			get:RSHO			get:RUPA			get:RELB			get:RFRA			get:RWRA			get:RWRB			get:RFIN			get:LASI			get:RASI			get:LPSI			get:RPSI			
		X1	Y1	Z1	X2	Y2	Z2	X3	Y3	Z3	X4	Y4	Z4	X5	Y5	Z5	X6	Y6	Z6	X7	Y7	Z7	X8	Y8	Z8	X9	Y9	Z9	X10	Y10	Z10	X11	Y11	Z11	X12	Y12	Z12	X13	Y13	Z13	X14	Y14	Z14	X15	Y15	Z15	X16	Y16	Z16	X17	Y17	Z17	X18	Y18	Z18	X19	Y19	Z19	X20	Y20	Z20	X21	Y21	Z21	X22	Y22	Z22	X23	Y23	Z23	X24	Y24	Z24	X25	Y25	Z25	X26	Y26	Z26	X27	Y27	Z27	
1	0	85.055801	1570.3732	-63.370922	-74.595291	1561.2527	-74.363876	84.78727	1561.7277	-188.30849	-40.862053	1564.5502	-212.26741	20.820019	1376.9099	-228.2122	22.436493	1116.1	-273.35712	17.98468	1295.3512	-51.872509	27.541664	1105.4305	-13.610572	-64.262245	1308.7813	-262.62604	185.38087	1359.6577	-138.90047	239.2545	1211.2838	-123.29678	261.79611	1029.0933	-146.86874	226.93663	934.94843	-69.87738	202.72383	839.79108	-56.485306	266.42032	834.48322	-84.818138	253.09653	759.03406	-37.367092	-135.80135	1360.234	-147.71187	-207.3226	1141.4236	-120.0766	-220.7173	1034.0171	-165.92039	-201.49039	970.04144	-81.220352	-175.18361	816.75317	-52.015846	-230.80373	814.47766	-102.60106	-216.71387	749.32703	-36.969597	154.00873	927.01355	-71.788353	-125.16323	918.09937	-74.219017	71.051689	955.48572	-275.13071	-37.933216	947.0575	-277.88666
2	0.01	85.095451	1570.3392	-63.394985	-74.506836	1561.2316	-74.37146	84.84433	1561.7041	-188.29813	-40.789066	1564.5298	-212.26003	20.813652	1376.8784	-228.11894	22.46002	1116.1116	-273.42538	18.016291	1295.333	-51.908665	27.576382	1105.4349	-13.661616	-64.237137	1308.7966	-262.67331	185.41469	1359.6399	-138.86858	239.26329	1211.2672	-123.33549	261.79724	1029.0891	-146.88187	226.90755	934.91229	-69.93576	202.69861	839.78564	-56.504498	266.41617	834.44257	-84.899994	253.09488	759.00189	-37.453827	-135.7807	1360.2231	-147.7177	-207.30763	1141.4291	-120.14635	-220.82658	1033.6429	-165.35287	-201.48097	970.02496	-81.312798	-175.15033	816.74677	-52.081535	-230.77614	814.47748	-102.68943	-216.65654	749.32397	-37.057102	154.03171	926.99805	-71.819626	-125.16266	918.11841	-74.223282	71.073532	955.50342	-275.13129	-37.910843	947.04388	-277.91052
3	0.02	85.144958	1570.3431	-63.373753	-74.449532	1561.2643	-74.37748	84.859825	1561.7053	-188.31448	-40.741539	1564.5564	-212.29364	20.886078	1376.9362	-228.23445	22.455334	1116.1273	-273.42624	17.227201	1295.2482	-51.972603	26.761026	1105.3469	-13.641302	-64.195091	1308.7623	-262.57358	185.43465	1359.6255	-138.93987	239.2753	1211.269	-123.33807	261.88593	1029.1121	-146.89655	226.91313	934.89368	-69.971886	202.66756	839.76111	-56.59539	266.37888	834.41742	-84.906898	253.0314	758.96448	-37.540749	-135.76253	1360.2327	-147.77765	-207.28514	1141.4186	-120.19807	-220.79878	1033.6475	-165.40651	-201.47227	970.05005	-81.35424	-175.12065	816.78333	-52.12133	-230.75786	814.51575	-102.76461	-216.65448	749.31799	-37.15844	154.02995	927.01483	-71.824043	-125.12499	918.08167	-74.279877	71.104866	955.5166	-275.19522	-39.232285	946.78876	-276.90472
4	0.03	85.173981	1570.3292	-63.388393	-74.446846	1561.2708	-74.37944	84.916847	1561.72	-188.30659	-40.688934	1564.5713	-212.28006	20.902748	1376.9054	-228.19254	22.509796	1116.1177	-273.45053	17.256025	1295.2328	-51.75893	26.787994	1105.3262	-13.685052	-64.15065	1308.7706	-262.65802	185.47241	1359.6058	-138.94868	239.28922	1211.2496	-123.34001	261.87598	1029.0845	-146.91919	226.87016	934.87787	-69.995613	202.6566	839.73267	-56.640015	266.36728	834.37408	-84.960938	253.00285	758.94214	-37.560398	-135.74672	1360.2521	-147.7843	-207.28076	1141.4274	-120.23817	-220.76863	1033.6543	-165.44653	-201.43173	970.03882	-81.409065	-175.10101	816.77649	-52.182621	-230.73335	814.49127	-102.82008	-216.61496	749.31946	-37.221493	154.04533	926.99963	-71.844803	-125.11846	918.12329	-74.283073	71.129166	955.50287	-275.1994	-39.172241	946.78778	-276.90079
5	0.04	85.219727	1570.3053	-63.378258	-74.38987	1561.2717	-74.359344	84.931213	1561.7208	-188.31981	-40.664482	1564.5847	-212.23889	20.941717	1376.9126	-228.26622	22.534819	1116.1307	-273.51718	17.321554	1295.2306	-51.832169	26.81702	1105.3293	-13.610482	-64.112831	1308.8156	-262.67697	185.4893	1359.597	-138.92015	239.30862	1211.2316	-123.36283	261.90952	1029.0896	-146.90692	226.90085	934.85632	-70.073158	202.64345	839.7077	-56.670033	266.33844	834.35571	-85.001778	252.97365	758.88647	-37.641449	-135.69981	1360.2397	-147.8138	-207.26022	1141.4386	-120.26712	-220.6981	1033.6891	-165.55818	-201.42513	970.02539	-81.393463	-175.09018	816.77594	-52.167778	-230.71675	814.49396	-102.83336	-216.59918	749.29565	-37.234219	154.10481	926.99243	-71.826042	-125.10133	918.13043	-74.335915	71.153236	955.50952	-275.22458	-39.003674	946.78955	-277.00992
6	0.05	85.291481	1570.2979	-63.379826	-74.779465	1561.2184	-73.6362	84.957588	1561.7352	-188.3134	-40.658463	1564.6271	-212.22266	20.992151	1376.8981	-228.19298	22.60236	1116.1541	-273.52032	17.356857	1295.2334	-51.825096	26.871195	1105.3315	-13.657736	-64.068161	1308.8229	-262.68594	185.53098	1359.5934	-138.92282	239.32307	1211.2262	-123.33352	261.91241	1029.0842	-146.94438	226.89427	934.83698	-70.109383	202.6366	839.70801	-56.729218	266.31497	834.34692	-85.063263	252.94522	758.87732	-37.667385	-135.67662	1360.2523	-147.79855	-207.25914	1141.4379	-120.25992	-220.67831	1033.644	-165.56238	-201.39095	970.02142	-81.411743	-175.04057	816.75189	-52.201988	-230.6938	814.4837	-102.87242	-216.58766	749.28735	-37.260571	154.13461	926.99469	-71.858887	-125.04449	918.14288	-74.288574	71.203728	955.51782	-275.24988	-38.880951	946.80505	-277.14621
7	0.06	85.323112	1570.2642	-63.375481	-74.784554	1561.2495	-73.622192	84.979576	1561.7108	-188.29147	-40.614086	1564.6348	-212.15776	21.014595	1376.9559	-228.2381	22.631922	1116.1444	-273.54388	17.426561	1295.2279	-51.775856	26.893719	1105.3281	-13.601442	-64.03952	1308.8252	-262.68637	185.55496	1359.5867	-138.91513	239.31712	1211.2272	-123.33593	261.94037	1029.1002	-146.94128	226.88002	934.8468	-70.154869	202.60837	839.69391	-56.752556	266.30682	834.34485	-85.089333	252.92972	758.88416	-37.707638	-135.65738	1360.243	-147.7988	-207.19296	1141.4358	-120.24387	-220.6642	1033.6443	-165.56783	-201.35039	970.03351	-81.434029	-175.00223	816.76599	-52.273525	-230.64163	814.46075	-102.87447	-216.55783	749.28851	-37.321152	154.17081	927.00507	-71.869362	-125.02256	918.12769	-74.342087	71.229851	955.4903	-275.30911	-38.880058	946.81262	-277.1369
8	0.07	85.385017	1570.239	-63.382217	-74.727303	1561.23	-73.61322	84.999207	1561.7258	-188.30603	-40.633556	1564.6235	-212.11958	21.020594	1376.9794	-228.31488	22.666138	1116.1647	-273.54297	17.440289	1295.2203	-51.710209	26.920788	1105.334	-13.702019	-64.016617	1308.7998	-262.62222	185.59544	1359.5781	-138.899	239.36301	1211.2134	-123.37208	261.93796	1029.0796	-146.97771	226.88364	934.84711	-70.159058	202.62369	839.70532	-56.768089	266.30408	834.32806	-85.140663	252.93184	758.85791	-37.756638	-135.62006	1360.2308	-147.75745	-207.15128	1141.411	-120.29221	-220.6055	1033.6305	-165.58504	-201.31827	970.04181	-81.468025	-174.97304	816.77264	-52.192722	-230.63083	814.46606	-102.9126	-216.52536	749.29071	-37.285484	154.16953	926.99347	-71.866745	-125.01882	918.12927	-74.337929	71.253067	955.48993	-275.28793	-38.842964	946.78668	-277.12048
9	0.08	85.446365	1570.2461	-63.356289	-74.631836	1561.2339	-73.547386	84.997101	1561.739	-188.30585	-40.62574	1564.632	-212.0938	21.094166	1376.9807	-228.27362	22.715382	1116.1669	-273.5191	17.48597	1295.238	-51.877571	26.969467	1105.3336	-13.615049	-63.970783	1308.8059	-262.6283	185.60411	1359.5801	-138.88641	239.35583	1211.2294	-123.37493	261.95944	1029.0809	-146.97693	226.90544	934.86035	-70.194244	202.63072	839.70081	-56.810783	266.30316	834.31396	-85.190613	252.93932	758.86438	-37.801922	-135.59668	1360.2207	-147.79987	-207.13805	1141.421	-120.32446	-220.52272	1033.6169	-165.66264	-201.31012	970.0174	-81.510521	-174.93495	816.74097	-52.253902	-230.58163	814.46838	-102.8907	-216.47452	749.27954	-37.331223	154.19211	926.99347	-71.892975	-124.99414	918.15552	-74.396324	71.284744	955.51697	-275.29666	-38.831852	946.80939	-277.14288
10	0.09	85.472572	1570.2594	-63.359486	-74.658524	1561.2551	-73.627831	85.000519	1561.7509	-188.30255	-40.615776	1564.6277	-212.0103	21.127602	1377.0264	-228.38043	22.735859	1116.208	-273.54846	17.517902	1295.2335	-51.779522	26.976915	1105.3391	-13.665922	-63.929893	1308.8541	-262.71655	185.66406	1359.5671	-138.93678	239.37515	1211.243	-123.3572	261.91132	1029.073	-147.01082	226.90042	934.82593	-70.189857	202.6084	839.68066	-56.82309	266.29883	834.31268	-85.19368	252.92403	758.85889	-37.816479	-135.562	1360.2325	-147.78568	-207.09956	1141.4174	-120.34591	-220.47958	1033.6399	-165.72949	-201.27089	970.01434	-81.526344	-174.90565	816.76642	-52.195232	-230.54193	814.47906	-102.95089	-216.44731	749.25806	-37.345512	154.22404	926.9798	-71.896111	-124.97041	918.1571	-74.392563	71.30986	955.52356	-275.32169	-38.80711	946.80927	-277.1178
11	0.1	85.53476	1570.2671	-63.332722	-74.568497	1561.2412	-73.612633	85.021378	1561.75	-188.29758	-40.60955	1564.6475	-212.00435	21.148466	1376.9963	-228.31506	22.791445	1116.1937	-273.56665	17.546072	1295.235	-51.775455	27.017237	1105.3359	-13.665155	-63.877502	1308.8647	-262.75244	185.68335	1359.5696	-138.94031	239.39594	1211.2469	-123.35952	261.9364	1029.0769	-147.00673	226.9008	934.83655	-70.213379	202.63004	839.67438	-56.844528	266.29575	834.31226	-85.197777	252.91643	758.82904	-37.817844	-135.52931	1360.2219	-147.81166	-207.07027	1141.408	-120.40432	-220.42316	1033.6392	-165.73578	-201.24077	970.02509	-81.561729	-174.87888	816.75208	-52.349949	-230.49072	814.47229	-102.99215	-216.41344	749.31738	-37.366749	154.27112	926.95886	-71.912918	-124.96813	918.14142	-74.446831	71.319817	955.50153	-275.31241	-38.808048	946.80804	-277.09418
12	0.11	85.586639	1570.2716	-63.295082	-74.605133	1561.251	-73.597191	85.04599	1561.7908	-188.27931	-40.589214	1564.6569	-211.97679	21.177881	1376.9886	-228.34654	22.840399	1116.1967	-273.54245	17.569668	1295.2343	-51.833569	27.050535	1105.3525	-13.731865	-63.84174	1308.8375	-262.70105	185.71422	1359.568	-138.95937	239.43507	1211.2615	-123.33186	261.98117	1029.0851	-146.99872	226.92436	934.83252	-70.207367	202.66374	839.68011	-56.823776	266.2984	834.31024	-85.189301	252.91699	758.82635	-37.833225	-135.476	1360.2321	-147.79678	-207.00679	1141.4055	-120.39005	-220.38029	1033.6643	-165.80344	-201.19769	970.03748	-81.564232	-174.88107	816.78571	-52.357029	-230.48856	814.48926	-103.00302	-216.4165	749.30371	-37.428719	154.28625	926.97827	-71.908226	-124.89232	918.13544	-74.395164	71.346291	955.5036	-275.31195	-38.762379	946.79065	-277.16028
13	0.12	85.615494	1570.2593	-63.30204	-74.51255	1561.212	-73.5672	85.050514	1561.8013	-188.27486	-40.562958	1564.6959	-211.93872	21.223619	1377.0056	-228.32164	22.871212	1116.2213	-273.56854	17.629826	1295.256	-51.810345	27.06995	1105.361	-13.728906	-63.81739	1308.838	-262.702	185.74495	1359.5734	-138.95749	239.45522	1211.2561	-123.35626	262.0274	1029.093	-147.01439	226.93057	934.81262	-70.189659	202.68497	839.6853	-56.823463	266.28943	834.30865	-85.191956	252.92859	758.80963	-37.794044	-135.45128	1360.2421	-147.81572	-206.97108	1141.3881	-120.40763	-220.32144	1033.6565	-165.7639	-201.16043	970.03699	-81.575439	-174.82483	816.77588	-52.349819	-230.45148	814.47339	-103.01963	-216.38976	749.302	-37.427902	154.2834	926.95636	-71.916214	-124.88441	918.15399	-74.398476	71.370094	955.50952	-275.33743	-38.712738	946.82294	-277.16885
14	0.13	85.665634	1570.2745	-63.285679	-74.513611	1561.2311	-73.588348	85.076843	1561.8324	-188.23822	-40.649281	1564.9518	-212.09561	21.255386	1376.9672	-228.33818	22.893692	1116.1722	-273.57065	17.627789	1295.2552	-51.909134	27.133688	1105.365	-13.736285	-63.814083	1308.8352	-262.69492	185.7879	1359.5613	-138.96616	239.45503	1211.2302	-123.36037	262.03271	1029.0905	-146.97054	226.96854	934.80957	-70.21125	202.66528	839.71021	-56.805676	266.32135	834.31134	-85.194763	252.95198	758.81396	-37.791721	-135.41135	1360.2498	-147.83795	-206.931	1141.416	-120.41174	-220.2646	1033.668	-165.78769	-201.08432	970.06299	-81.5802	-174.77533	816.79535	-52.303894	-230.35863	814.46375	-103.01553	-216.33154	749.31067	-37.449875	154.35628	926.95886	-71.889175	-124.84112	918.13831	-74.453491	71.428246	955.53815	-275.35938	-38.693611	946.84381	-277.15616
